<svg xmlns="http://www.w3.org/2000/svg" xmlns:xlink="http://www.w3.org/1999/xlink" width="1920" height="1080" viewBox="0 0 1920 1080">
  <defs>
    <clipPath id="clip-Web_1920_1">
      <rect width="1920" height="1080"/>
    </clipPath>
  </defs>
  <g id="Web_1920_1" data-name="Web 1920 – 1" clip-path="url(#clip-Web_1920_1)">
    <rect width="1920" height="1080" fill="#fff"/>
    <ellipse id="Ellipse_8" data-name="Ellipse 8" cx="669" cy="67" rx="669" ry="67" transform="translate(346 828)" fill="#9f9f9f" opacity="0.61"/>
    <g id="badan" transform="translate(1201.341 479.256)">
      <path id="badan-2" data-name="badan" d="M16.383,0c9.048,0,16.383,12.422,16.383,27.745S25.431,55.49,16.383,55.49,0,43.068,0,27.745,7.335,0,16.383,0Z" transform="translate(69.889) rotate(11)" fill="#deb8b8"/>
      <path id="Path_1" data-name="Path 1" d="M34.917,0C54.2,0,69.835,41.524,69.835,92.747S54.2,185.495,34.917,185.495,0,143.97,0,92.747,15.633,0,34.917,0Z" transform="matrix(0.978, 0.208, -0.208, 0.978, 38.567, 13.138)" fill="#657cb1"/>
    </g>
    <g id="kepala" transform="translate(1249.383 407.757)">
      <circle id="Ellipse_1" data-name="Ellipse 1" cx="40" cy="40" r="40" transform="translate(16.617 22.243)" fill="#deb8b8"/>
      <ellipse id="Ellipse_2" data-name="Ellipse 2" cx="38.314" cy="26.16" rx="38.314" ry="26.16" transform="matrix(0.883, -0.469, 0.469, 0.883, 0, 35.975)" fill="#7e7e7e"/>
      <ellipse id="Ellipse_3" data-name="Ellipse 3" cx="23" cy="12.5" rx="23" ry="12.5" transform="translate(62.617 21.243)" fill="#7e7e7e"/>
    </g>
    <g id="kaki" transform="translate(1213.37 632.127)">
      <ellipse id="Ellipse_4" data-name="Ellipse 4" cx="76.1" cy="26.688" rx="76.1" ry="26.688" transform="matrix(0.978, 0.208, -0.208, 0.978, 11.097, 0)" fill="#6190ff"/>
      <ellipse id="Ellipse_5" data-name="Ellipse 5" cx="20" cy="53.5" rx="20" ry="53.5" transform="translate(121.63 39.873)" fill="#6190ff"/>
      <ellipse id="Ellipse_6" data-name="Ellipse 6" cx="24.5" cy="11" rx="24.5" ry="11" transform="translate(131.63 127.873)" fill="#6190ff"/>
    </g>
    <g id="tangan" transform="translate(1249.252 536.834)">
      <ellipse id="Ellipse_7" data-name="Ellipse 7" cx="81" cy="13.5" rx="81" ry="13.5" transform="translate(-0.252 0.166)" fill="#657cb1"/>
    </g>
    <g id="_2395797" data-name="2395797" transform="translate(361 898)">
      <path id="Path_2" data-name="Path 2" d="M0-439.5V-103l2.3.5c1.2.3,34.5,6.2,74.1,13L148.2-77H322v-5.4c0-12.4,4.6-28.1,12.1-41.1,7.5-13.2,23.1-28,36.8-35,16.3-8.3,37.5-11.3,56.2-8,19.8,3.5,36.3,12.5,50.3,27.6,14.2,15.3,23.6,37.6,23.6,56V-77h565.8l.7-7.3c3.8-40.4,30.4-71.7,69.2-81.4,10.3-2.6,32.2-2.3,42.8.6,37.2,10,64.2,42.3,67.2,80.3l.6,7.8h5.8c7,0,7.1-.2,12.4-13.8,12.9-33.5,18.3-93.5,11.1-124.2-5.1-22.1-16.9-45.3-33.5-66-7.1-8.9-25.1-26.9-33.6-33.8-3.8-3-42.5-41-86-84.2-43.4-43.3-82.6-81.8-87-85.6-21.1-18.3-42.4-31.8-55.5-35.3-3.4-.9-25.3-1.1-87.2-.9l-82.8.3-3.2,3.3-3.3,3.2-.3,72.5L804-369H793V-776H0Zm965.3-46a69.872,69.872,0,0,1,27.2,12c12.5,9.5,72.7,65.7,94.6,88.3,17.3,17.8,21.9,23.9,21.9,28.8,0,4-3.8,8.7-9.1,11.4-3.7,2-6.7,2-121.8,2-72.6,0-118.9-.4-120.5-1-4.3-1.6-10.3-7.8-12.5-13-2.1-4.9-2.1-5.6-1.9-61.2l.3-56.3,2.3-3.3c2.6-3.5,8-6.7,13.9-8.1,2.1-.5,25-.9,50.8-1C946.6-486.9,959.3-486.6,965.3-485.5ZM804-290v69H793v-68.3c0-37.6.3-68.7.7-69,.3-.4,2.8-.7,5.5-.7H804Z" fill="#4796f1"/>
      <path id="Path_3" data-name="Path 3" d="M399-155.4c-28.9,5.2-52.2,25.1-61.5,52.4a77.7,77.7,0,0,0,19.7,80.7C367.8-12.2,378.6-6.2,394-1.9c5.9,1.7,29.1,1.7,35,0,16.4-4.6,28.7-11.8,39.3-23,26.7-28.4,28.4-71.2,4-102.2-9.6-12.3-22.6-20.9-40.3-26.6C427.6-155.1,404.1-156.3,399-155.4Zm27.2,43.7c7.5,3.4,15.1,10.6,18.5,17.6,2.5,5,2.8,6.7,2.8,16.1,0,10.1-.1,10.8-3.4,16.8-8.2,15.1-24.8,22.8-40.6,18.9-11.5-2.8-19.6-9.3-25.3-20-2.4-4.7-2.7-6.2-2.7-15.7,0-12.5,1.7-17.1,9.2-25.1,7.9-8.4,16.7-12.1,28.3-11.6C418.5-114.4,422.1-113.7,426.2-111.7Z"/>
      <path id="Path_4" data-name="Path 4" d="M1140.4-154.6c-24,5.5-45,22.6-54.7,44.8-4.8,11-6.1,17.6-6.1,31.3-.1,15.5,1.4,21.9,7.8,35,10,20.1,27.2,34.3,49.2,40.7,6.6,1.9,10.2,2.3,21.4,2.2,12.4,0,14.2-.3,22.6-3.2,12.6-4.3,22.5-10.3,31.4-19.2,15.4-15.3,23-33.6,23-55.3-.1-21.7-7.2-38.8-23-54.8a73.116,73.116,0,0,0-31.5-19.5C1170.6-155.9,1150.4-156.9,1140.4-154.6Zm31.8,42.8a37.489,37.489,0,0,1,18.1,17.7c2.9,6,3.2,7.3,3.2,16.1-.1,8.3-.4,10.2-2.8,15.2-5.3,10.9-14.7,18.1-27,20.8-15.6,3.5-33.2-6-40.5-21.8-2.1-4.7-2.6-7.2-2.6-14.2-.1-7.2.3-9.4,2.7-14.5a68.244,68.244,0,0,1,5.3-9.3c3.4-4.4,12.3-10.2,18.2-11.9C1154.1-115.7,1165.4-114.9,1172.2-111.8Z"/>
      <path id="Path_5" data-name="Path 5" d="M0-439.5V-103l2.3.5c1.2.3,34.5,6.2,74.1,13L148.2-77H322v-5.4c0-12.4,4.6-28.1,12.1-41.1,7.5-13.2,23.1-28,36.8-35,16.3-8.3,37.5-11.3,56.2-8,19.8,3.5,36.3,12.5,50.3,27.6,14.2,15.3,23.6,37.6,23.6,56V-77h565.8l.7-7.3c3.8-40.4,30.4-71.7,69.2-81.4,10.3-2.6,32.2-2.3,42.8.6,37.2,10,64.2,42.3,67.2,80.3l.6,7.8h5.8c7,0,7.1-.2,12.4-13.8,12.9-33.5,18.3-93.5,11.1-124.2-5.1-22.1-16.9-45.3-33.5-66-7.1-8.9-25.1-26.9-33.6-33.8-3.8-3-42.5-41-86-84.2-43.4-43.3-82.6-81.8-87-85.6-21.1-18.3-42.4-31.8-55.5-35.3-3.4-.9-25.3-1.1-87.2-.9l-82.8.3-3.2,3.3-3.3,3.2-.3,72.5L804-369H793V-776H0Zm965.3-46a69.872,69.872,0,0,1,27.2,12c12.5,9.5,72.7,65.7,94.6,88.3,17.3,17.8,21.9,23.9,21.9,28.8,0,4-3.8,8.7-9.1,11.4-3.7,2-6.7,2-121.8,2-72.6,0-118.9-.4-120.5-1-4.3-1.6-10.3-7.8-12.5-13-2.1-4.9-2.1-5.6-1.9-61.2l.3-56.3,2.3-3.3c2.6-3.5,8-6.7,13.9-8.1,2.1-.5,25-.9,50.8-1C946.6-486.9,959.3-486.6,965.3-485.5ZM804-290v69H793v-68.3c0-37.6.3-68.7.7-69,.3-.4,2.8-.7,5.5-.7H804Z" transform="translate(14 -7)" fill="none" stroke="#5a5a5a" stroke-width="5"/>
    </g>
    <text id="PUSLING" transform="translate(565 304)" fill="#fff" font-size="100" font-family="SegoeUI, Segoe UI"><tspan x="0" y="0">PUSLING</tspan></text>
    <text id="Kab._Indramayu" data-name="Kab. Indramayu" transform="translate(591 383)" fill="#fff" font-size="50" font-family="SegoeUI, Segoe UI"><tspan x="0" y="0">Kab. Indramayu</tspan></text>
  </g>
</svg>
